%
M48
M72
T01C0.0120
T02C0.0157
T03C0.0400
T04C0.1300
%
T01
X4834Y4875
X4834Y5875
X5934Y5975
X6084Y6675
X6634Y6975
X7284Y6825
X7784Y6925
X8384Y5875
X8184Y5075
X8984Y4825
X9334Y4875
X10234Y4425
X10684Y4125
X11334Y4875
X12334Y4875
X12784Y5725
X12534Y6075
X12584Y6625
X13084Y6525
X13909Y6900
X13834Y7375
X13834Y7875
X13834Y8625
X12634Y9825
X11984Y10675
X12334Y11875
X13134Y11975
X13834Y12375
X14034Y13575
X14834Y13575
X14234Y14825
X13884Y15275
X12784Y15925
X12534Y16275
X12584Y16825
X13084Y16725
X13909Y17100
X13834Y17575
X13834Y18075
X13834Y18825
X12634Y20025
X12334Y18875
X11634Y18725
X11125Y19285
X10734Y19075
X10834Y18325
X10884Y17775
X10284Y18375
X9784Y18825
X9534Y19075
X9229Y18975
X9584Y18075
X9484Y17625
X9284Y17225
X9860Y16949
X10404Y16606
X10384Y15975
X10334Y15575
X10234Y14625
X10684Y14325
X11334Y15075
X12334Y15075
X11834Y16825
X12084Y17125
X14984Y17175
X15284Y17875
X15934Y18625
X16334Y18075
X15234Y18975
X15834Y20575
X14834Y21575
X14634Y20875
X13834Y22575
X13134Y22175
X12334Y22075
X11984Y20875
X10834Y20025
X10434Y21175
X8484Y21175
X8584Y20025
X7334Y19075
X7684Y18725
X6834Y19075
X6334Y20025
X5834Y19575
X4834Y20075
X5834Y20575
X6834Y21075
X4834Y18575
X4834Y17575
X6084Y16875
X6634Y17175
X7284Y17025
X7784Y17125
X8384Y16075
X8184Y15275
X8984Y15025
X9334Y15075
X7084Y14475
X5834Y15075
X4834Y15075
X4834Y16075
X5934Y16175
X6834Y10875
X5834Y10375
X6334Y9825
X5834Y9375
X4834Y9875
X4834Y8375
X4834Y7375
X6834Y8875
X7334Y8875
X7684Y8525
X8584Y9825
X9534Y8875
X9229Y8775
X9784Y8625
X10284Y8175
X9584Y7875
X9484Y7425
X9284Y7025
X9860Y6749
X10404Y6406
X10384Y5775
X10334Y5375
X11834Y6625
X12084Y6925
X10884Y7575
X10834Y8125
X10734Y8875
X11125Y9085
X11634Y8525
X12334Y8675
X10834Y9825
X10434Y10975
X8484Y10975
X14634Y10675
X14834Y11375
X15834Y10375
X15234Y8775
X15934Y8425
X16334Y7875
X15284Y7675
X14984Y6975
X16334Y5875
X16334Y4875
X17534Y4875
X17534Y5875
X18634Y5975
X18784Y6675
X19334Y6975
X19984Y6825
X20484Y6925
X21084Y5875
X20884Y5075
X21684Y4825
X22034Y4875
X22934Y4425
X23384Y4125
X24034Y4875
X25034Y4875
X25484Y5725
X25234Y6075
X25284Y6625
X25784Y6525
X26609Y6900
X26534Y7375
X26534Y7875
X26534Y8625
X25334Y9825
X24684Y10675
X23534Y9825
X23825Y9085
X23434Y8875
X23534Y8125
X22984Y8175
X22484Y8625
X22234Y8875
X21929Y8775
X22284Y7875
X22184Y7425
X21984Y7025
X22560Y6749
X23104Y6406
X23084Y5775
X23034Y5375
X24534Y6625
X24784Y6925
X23584Y7575
X24334Y8525
X25034Y8675
X23134Y10975
X25034Y11875
X25834Y11975
X26534Y12375
X26734Y13575
X27534Y13575
X26934Y14825
X26584Y15275
X25484Y15925
X25234Y16275
X25284Y16825
X25784Y16725
X26609Y17100
X26534Y17575
X26534Y18075
X26534Y18825
X25334Y20025
X25034Y18875
X24334Y18725
X23825Y19285
X23434Y19075
X23534Y18325
X23584Y17775
X22984Y18375
X22484Y18825
X22234Y19075
X21929Y18975
X22284Y18075
X22184Y17625
X21984Y17225
X22560Y16949
X23104Y16606
X23084Y15975
X23034Y15575
X22934Y14625
X23384Y14325
X24034Y15075
X25034Y15075
X24534Y16825
X24784Y17125
X27684Y17175
X27984Y17875
X28634Y18625
X29034Y18075
X27934Y18975
X28534Y20575
X27534Y21575
X27334Y20875
X26534Y22575
X25834Y22175
X25034Y22075
X24684Y20875
X23534Y20025
X23134Y21175
X21184Y21175
X21284Y20025
X20034Y19075
X20384Y18725
X19534Y19075
X19034Y20025
X18534Y19575
X17534Y20075
X18534Y20575
X19534Y21075
X17534Y18575
X17534Y17575
X18784Y16875
X19334Y17175
X19984Y17025
X20484Y17125
X21084Y16075
X20884Y15275
X21684Y15025
X22034Y15075
X19784Y14475
X18534Y15075
X17534Y15075
X17534Y16075
X18634Y16175
X16334Y16075
X16334Y15075
X19534Y10875
X18534Y10375
X19034Y9825
X18534Y9375
X17534Y9875
X17534Y8375
X17534Y7375
X19534Y8875
X20034Y8875
X20384Y8525
X21284Y9825
X21184Y10975
X27334Y10675
X27534Y11375
X28534Y10375
X27934Y8775
X28634Y8425
X29034Y7875
X27984Y7675
X27684Y6975
X29034Y5875
X29034Y4875
X27534Y3375
X26734Y3375
X26934Y4625
X26584Y5075
X19784Y4275
X18534Y4875
X14834Y3375
X14034Y3375
X14234Y4625
X13884Y5075
X7084Y4275
X5834Y4875
X14034Y23775
X14834Y23775
X14234Y25025
X13884Y25475
X12784Y26125
X12534Y26475
X12584Y27025
X13084Y26925
X13909Y27300
X13834Y27775
X13834Y28275
X13834Y29025
X12634Y30225
X11984Y31075
X12334Y32275
X13134Y32375
X13834Y32775
X14834Y31775
X14634Y31075
X15834Y30775
X15234Y29175
X15934Y28825
X16334Y28275
X15284Y28075
X14984Y27375
X16334Y26275
X16334Y25275
X17534Y25275
X18534Y25275
X18634Y26375
X18784Y27075
X19334Y27375
X19984Y27225
X20484Y27325
X21084Y26275
X20884Y25475
X21684Y25225
X22034Y25275
X22934Y24825
X23384Y24525
X24034Y25275
X25034Y25275
X25484Y26125
X25234Y26475
X25284Y27025
X25784Y26925
X26609Y27300
X26534Y27775
X26534Y28275
X26534Y29025
X25334Y30225
X24684Y31075
X23534Y30225
X23825Y29485
X23434Y29275
X23534Y28525
X22984Y28575
X22484Y29025
X22234Y29275
X21929Y29175
X22284Y28275
X22184Y27825
X21984Y27425
X22560Y27149
X23104Y26806
X23084Y26175
X23034Y25775
X24534Y27025
X24784Y27325
X23584Y27975
X24334Y28925
X25034Y29075
X23134Y31375
X25034Y32275
X25834Y32375
X26534Y32775
X27534Y31775
X27334Y31075
X28534Y30775
X27934Y29175
X28634Y28825
X29034Y28275
X27984Y28075
X27684Y27375
X29034Y26275
X29034Y25275
X27534Y23775
X26734Y23775
X26934Y25025
X26584Y25475
X21284Y30225
X21184Y31375
X19534Y31275
X19034Y30225
X18534Y29775
X18534Y30775
X17534Y30275
X17534Y28775
X17534Y27775
X17534Y26275
X19784Y24675
X20384Y28925
X20034Y29275
X19534Y29275
X12334Y29075
X11634Y28925
X11125Y29485
X10734Y29275
X10834Y28525
X10284Y28575
X9784Y29025
X9534Y29275
X9229Y29175
X9584Y28275
X9484Y27825
X9284Y27425
X9860Y27149
X10404Y26806
X10384Y26175
X10334Y25775
X9334Y25275
X8984Y25225
X8184Y25475
X8384Y26275
X7784Y27325
X7284Y27225
X6634Y27375
X6084Y27075
X5934Y26375
X4834Y26275
X4834Y25275
X5834Y25275
X7084Y24675
X10234Y24825
X10684Y24525
X11334Y25275
X12334Y25275
X11834Y27025
X12084Y27325
X10884Y27975
X10834Y30225
X10434Y31375
X8484Y31375
X8584Y30225
X7334Y29275
X7684Y28925
X6834Y29275
X6334Y30225
X5834Y29775
X5834Y30775
X4834Y30275
X4834Y28775
X4834Y27775
X6834Y31275
X29034Y16075
X29034Y15075
T02
X27834Y15375
X26784Y16725
X24534Y15475
X23734Y16725
X22334Y16675
X22484Y15475
X20284Y15475
X18984Y16225
X20384Y19325
X19634Y20525
X21884Y20525
X22834Y19325
X24034Y20575
X25234Y19375
X26684Y20575
X27334Y19325
X27834Y25575
X26784Y26925
X24534Y25675
X23734Y26925
X22334Y26875
X22484Y25675
X20284Y25675
X18984Y26425
X20384Y29525
X19634Y30725
X21884Y30725
X22834Y29525
X24034Y30775
X25234Y29575
X26684Y30775
X27334Y29525
X15134Y25575
X14084Y26925
X11834Y25675
X11034Y26925
X9634Y26875
X9784Y25675
X7584Y25675
X6284Y26425
X7684Y29525
X6934Y30725
X9184Y30725
X10134Y29525
X11334Y30775
X12534Y29575
X13984Y30775
X14634Y29525
X13984Y20575
X14634Y19325
X12534Y19375
X11334Y20575
X10134Y19325
X9184Y20525
X7684Y19325
X6934Y20525
X9634Y16675
X9784Y15475
X11034Y16725
X11834Y15475
X14084Y16725
X15134Y15375
X13984Y10375
X14634Y9125
X12534Y9175
X11334Y10375
X10134Y9125
X9184Y10325
X7684Y9125
X6934Y10325
X9634Y6475
X9784Y5275
X11034Y6525
X11834Y5275
X14084Y6525
X15134Y5175
X18984Y6025
X20284Y5275
X22484Y5275
X22334Y6475
X23734Y6525
X24534Y5275
X26784Y6525
X27834Y5175
X27334Y9125
X26684Y10375
X25234Y9175
X24034Y10375
X22834Y9125
X21884Y10325
X20384Y9125
X19634Y10325
X7584Y5275
X6284Y6025
X7584Y15475
X6284Y16225
T03
X6834Y13575
X7834Y13575
X8834Y13575
X9834Y13575
X10834Y13575
X11834Y13575
X11834Y12375
X10834Y12375
X9834Y12375
X8834Y12375
X7834Y12375
X6834Y12375
X6834Y3375
X7834Y3375
X8834Y3375
X9834Y3375
X10834Y3375
X11834Y3375
X19534Y3375
X20534Y3375
X21534Y3375
X22534Y3375
X23534Y3375
X24534Y3375
X24534Y12375
X23534Y12375
X22534Y12375
X21534Y12375
X20534Y12375
X19534Y12375
X19534Y13575
X20534Y13575
X21534Y13575
X22534Y13575
X23534Y13575
X24534Y13575
X24534Y22575
X23534Y22575
X22534Y22575
X21534Y22575
X20534Y22575
X19534Y22575
X19534Y23775
X20534Y23775
X21534Y23775
X22534Y23775
X23534Y23775
X24534Y23775
X24534Y32775
X23534Y32775
X22534Y32775
X21534Y32775
X20534Y32775
X19534Y32775
X11834Y32775
X10834Y32775
X9834Y32775
X8834Y32775
X7834Y32775
X6834Y32775
X6834Y23775
X7834Y23775
X8834Y23775
X9834Y23775
X10834Y23775
X11834Y23775
X11834Y22575
X10834Y22575
X9834Y22575
X8834Y22575
X7834Y22575
X6834Y22575
T04
X5334Y22075
X5334Y24275
X5334Y32275
X15834Y32275
X18034Y32275
X18034Y24275
X18034Y22075
X15834Y22075
X15834Y24275
X15834Y14075
X15834Y11875
X18034Y11875
X18034Y14075
X18034Y3875
X15834Y3875
X5334Y3875
X5334Y11875
X5334Y14075
X28534Y14075
X28534Y11875
X28534Y3875
X28534Y22075
X28534Y24275
X28534Y32275
M30
