G75*
%MOIN*%
%OFA0B0*%
%FSLAX25Y25*%
%IPPOS*%
%LPD*%
%AMOC8*
5,1,8,0,0,1.08239X$1,22.5*
%
%ADD10R,0.03937X0.04331*%
%ADD11R,0.07874X0.04724*%
%ADD12R,0.05315X0.02362*%
%ADD13R,0.02953X0.01575*%
%ADD14R,0.02700X0.01300*%
%ADD15R,0.01772X0.00984*%
%ADD16R,0.00984X0.01772*%
%ADD17R,0.04331X0.03937*%
%ADD18C,0.01181*%
%ADD19R,0.01181X0.00689*%
%ADD20R,0.01181X0.02165*%
%ADD21R,0.01811X0.02559*%
%ADD22R,0.02362X0.02362*%
D10*
X0070342Y0075404D03*
X0070342Y0082096D03*
X0119642Y0082096D03*
X0125842Y0082096D03*
X0131842Y0082096D03*
X0131842Y0075404D03*
X0125842Y0075404D03*
X0119642Y0075404D03*
X0197342Y0075404D03*
X0197342Y0082096D03*
X0246642Y0082096D03*
X0252842Y0082096D03*
X0258842Y0082096D03*
X0258842Y0075404D03*
X0252842Y0075404D03*
X0246642Y0075404D03*
X0246642Y0177404D03*
X0246642Y0184096D03*
X0252842Y0184096D03*
X0258842Y0184096D03*
X0258842Y0177404D03*
X0252842Y0177404D03*
X0197342Y0177404D03*
X0197342Y0184096D03*
X0131842Y0184096D03*
X0131842Y0177404D03*
X0125842Y0177404D03*
X0119642Y0177404D03*
X0119642Y0184096D03*
X0125842Y0184096D03*
X0070342Y0184096D03*
X0070342Y0177404D03*
X0070342Y0279404D03*
X0070342Y0286096D03*
X0119642Y0286096D03*
X0125842Y0286096D03*
X0131842Y0286096D03*
X0131842Y0279404D03*
X0125842Y0279404D03*
X0119642Y0279404D03*
X0197342Y0279404D03*
X0197342Y0286096D03*
X0246642Y0286096D03*
X0252842Y0286096D03*
X0258842Y0286096D03*
X0258842Y0279404D03*
X0252842Y0279404D03*
X0246642Y0279404D03*
D11*
X0048873Y0067726D03*
X0048873Y0089774D03*
X0048873Y0169726D03*
X0048873Y0191774D03*
X0048873Y0271726D03*
X0048873Y0293774D03*
X0162810Y0293774D03*
X0175873Y0293774D03*
X0175873Y0271726D03*
X0162810Y0271726D03*
X0162810Y0191774D03*
X0175873Y0191774D03*
X0175873Y0169726D03*
X0162810Y0169726D03*
X0162810Y0089774D03*
X0175873Y0089774D03*
X0175873Y0067726D03*
X0162810Y0067726D03*
X0289810Y0067726D03*
X0289810Y0089774D03*
X0289810Y0169726D03*
X0289810Y0191774D03*
X0289810Y0271726D03*
X0289810Y0293774D03*
D12*
X0275342Y0288656D03*
X0275342Y0284719D03*
X0275342Y0280781D03*
X0275342Y0276844D03*
X0190342Y0276844D03*
X0190342Y0280781D03*
X0190342Y0284719D03*
X0190342Y0288656D03*
X0148342Y0288656D03*
X0148342Y0284719D03*
X0148342Y0280781D03*
X0148342Y0276844D03*
X0063342Y0276844D03*
X0063342Y0280781D03*
X0063342Y0284719D03*
X0063342Y0288656D03*
X0063342Y0186656D03*
X0063342Y0182719D03*
X0063342Y0178781D03*
X0063342Y0174844D03*
X0148342Y0174844D03*
X0148342Y0178781D03*
X0148342Y0182719D03*
X0148342Y0186656D03*
X0190342Y0186656D03*
X0190342Y0182719D03*
X0190342Y0178781D03*
X0190342Y0174844D03*
X0275342Y0174844D03*
X0275342Y0178781D03*
X0275342Y0182719D03*
X0275342Y0186656D03*
X0275342Y0084656D03*
X0275342Y0080719D03*
X0275342Y0076781D03*
X0275342Y0072844D03*
X0190342Y0072844D03*
X0190342Y0076781D03*
X0190342Y0080719D03*
X0190342Y0084656D03*
X0148342Y0084656D03*
X0148342Y0080719D03*
X0148342Y0076781D03*
X0148342Y0072844D03*
X0063342Y0072844D03*
X0063342Y0076781D03*
X0063342Y0080719D03*
X0063342Y0084656D03*
D13*
X0089590Y0081309D03*
X0089590Y0076191D03*
X0089590Y0178191D03*
X0089590Y0183309D03*
X0089590Y0280191D03*
X0089590Y0285309D03*
X0216590Y0285309D03*
X0216590Y0280191D03*
X0216590Y0183309D03*
X0216590Y0178191D03*
X0216590Y0081309D03*
X0216590Y0076191D03*
D14*
X0210092Y0076100D03*
X0210092Y0078750D03*
X0210092Y0081400D03*
X0210092Y0178100D03*
X0210092Y0180750D03*
X0210092Y0183400D03*
X0210092Y0280100D03*
X0210092Y0282750D03*
X0210092Y0285400D03*
X0083092Y0285400D03*
X0083092Y0282750D03*
X0083092Y0280100D03*
X0083092Y0183400D03*
X0083092Y0180750D03*
X0083092Y0178100D03*
X0083092Y0081400D03*
X0083092Y0078750D03*
X0083092Y0076100D03*
D15*
X0099936Y0076388D03*
X0099936Y0077963D03*
X0099936Y0079537D03*
X0099936Y0081112D03*
X0099936Y0082687D03*
X0099936Y0074813D03*
X0111747Y0074813D03*
X0111747Y0076388D03*
X0111747Y0077963D03*
X0111747Y0079537D03*
X0111747Y0081112D03*
X0111747Y0082687D03*
X0111747Y0176813D03*
X0111747Y0178388D03*
X0111747Y0179963D03*
X0111747Y0181537D03*
X0111747Y0183112D03*
X0111747Y0184687D03*
X0099936Y0184687D03*
X0099936Y0183112D03*
X0099936Y0181537D03*
X0099936Y0179963D03*
X0099936Y0178388D03*
X0099936Y0176813D03*
X0099936Y0278813D03*
X0099936Y0280388D03*
X0099936Y0281963D03*
X0099936Y0283537D03*
X0099936Y0285112D03*
X0099936Y0286687D03*
X0111747Y0286687D03*
X0111747Y0285112D03*
X0111747Y0283537D03*
X0111747Y0281963D03*
X0111747Y0280388D03*
X0111747Y0278813D03*
X0226936Y0278813D03*
X0226936Y0280388D03*
X0226936Y0281963D03*
X0226936Y0283537D03*
X0226936Y0285112D03*
X0226936Y0286687D03*
X0238747Y0286687D03*
X0238747Y0285112D03*
X0238747Y0283537D03*
X0238747Y0281963D03*
X0238747Y0280388D03*
X0238747Y0278813D03*
X0238747Y0184687D03*
X0238747Y0183112D03*
X0238747Y0181537D03*
X0238747Y0179963D03*
X0238747Y0178388D03*
X0238747Y0176813D03*
X0226936Y0176813D03*
X0226936Y0178388D03*
X0226936Y0179963D03*
X0226936Y0181537D03*
X0226936Y0183112D03*
X0226936Y0184687D03*
X0226936Y0082687D03*
X0226936Y0081112D03*
X0226936Y0079537D03*
X0226936Y0077963D03*
X0226936Y0076388D03*
X0226936Y0074813D03*
X0238747Y0074813D03*
X0238747Y0076388D03*
X0238747Y0077963D03*
X0238747Y0079537D03*
X0238747Y0081112D03*
X0238747Y0082687D03*
D16*
X0236779Y0084656D03*
X0235204Y0084656D03*
X0233629Y0084656D03*
X0232054Y0084656D03*
X0230480Y0084656D03*
X0228905Y0084656D03*
X0228905Y0072844D03*
X0230480Y0072844D03*
X0232054Y0072844D03*
X0233629Y0072844D03*
X0235204Y0072844D03*
X0236779Y0072844D03*
X0236779Y0174844D03*
X0235204Y0174844D03*
X0233629Y0174844D03*
X0232054Y0174844D03*
X0230480Y0174844D03*
X0228905Y0174844D03*
X0228905Y0186656D03*
X0230480Y0186656D03*
X0232054Y0186656D03*
X0233629Y0186656D03*
X0235204Y0186656D03*
X0236779Y0186656D03*
X0236779Y0276844D03*
X0235204Y0276844D03*
X0233629Y0276844D03*
X0232054Y0276844D03*
X0230480Y0276844D03*
X0228905Y0276844D03*
X0228905Y0288656D03*
X0230480Y0288656D03*
X0232054Y0288656D03*
X0233629Y0288656D03*
X0235204Y0288656D03*
X0236779Y0288656D03*
X0109779Y0288656D03*
X0108204Y0288656D03*
X0106629Y0288656D03*
X0105054Y0288656D03*
X0103480Y0288656D03*
X0101905Y0288656D03*
X0101905Y0276844D03*
X0103480Y0276844D03*
X0105054Y0276844D03*
X0106629Y0276844D03*
X0108204Y0276844D03*
X0109779Y0276844D03*
X0109779Y0186656D03*
X0108204Y0186656D03*
X0106629Y0186656D03*
X0105054Y0186656D03*
X0103480Y0186656D03*
X0101905Y0186656D03*
X0101905Y0174844D03*
X0103480Y0174844D03*
X0105054Y0174844D03*
X0106629Y0174844D03*
X0108204Y0174844D03*
X0109779Y0174844D03*
X0109779Y0084656D03*
X0108204Y0084656D03*
X0106629Y0084656D03*
X0105054Y0084656D03*
X0103480Y0084656D03*
X0101905Y0084656D03*
X0101905Y0072844D03*
X0103480Y0072844D03*
X0105054Y0072844D03*
X0106629Y0072844D03*
X0108204Y0072844D03*
X0109779Y0072844D03*
D17*
X0088688Y0069250D03*
X0081995Y0069250D03*
X0081995Y0171250D03*
X0088688Y0171250D03*
X0088688Y0273250D03*
X0081995Y0273250D03*
X0208995Y0273250D03*
X0215688Y0273250D03*
X0215688Y0171250D03*
X0208995Y0171250D03*
X0208995Y0069250D03*
X0215688Y0069250D03*
D18*
X0217173Y0086372D02*
X0217173Y0089128D01*
X0217173Y0086372D02*
X0214417Y0086372D01*
X0214417Y0089128D01*
X0217173Y0089128D01*
X0217173Y0087494D02*
X0214417Y0087494D01*
X0214417Y0088616D02*
X0217173Y0088616D01*
X0210267Y0089128D02*
X0210267Y0086372D01*
X0207511Y0086372D01*
X0207511Y0089128D01*
X0210267Y0089128D01*
X0210267Y0087494D02*
X0207511Y0087494D01*
X0207511Y0088616D02*
X0210267Y0088616D01*
X0210267Y0188372D02*
X0210267Y0191128D01*
X0210267Y0188372D02*
X0207511Y0188372D01*
X0207511Y0191128D01*
X0210267Y0191128D01*
X0210267Y0189494D02*
X0207511Y0189494D01*
X0207511Y0190616D02*
X0210267Y0190616D01*
X0217173Y0191128D02*
X0217173Y0188372D01*
X0214417Y0188372D01*
X0214417Y0191128D01*
X0217173Y0191128D01*
X0217173Y0189494D02*
X0214417Y0189494D01*
X0214417Y0190616D02*
X0217173Y0190616D01*
X0217173Y0290372D02*
X0217173Y0293128D01*
X0217173Y0290372D02*
X0214417Y0290372D01*
X0214417Y0293128D01*
X0217173Y0293128D01*
X0217173Y0291494D02*
X0214417Y0291494D01*
X0214417Y0292616D02*
X0217173Y0292616D01*
X0210267Y0293128D02*
X0210267Y0290372D01*
X0207511Y0290372D01*
X0207511Y0293128D01*
X0210267Y0293128D01*
X0210267Y0291494D02*
X0207511Y0291494D01*
X0207511Y0292616D02*
X0210267Y0292616D01*
X0090173Y0293128D02*
X0090173Y0290372D01*
X0087417Y0290372D01*
X0087417Y0293128D01*
X0090173Y0293128D01*
X0090173Y0291494D02*
X0087417Y0291494D01*
X0087417Y0292616D02*
X0090173Y0292616D01*
X0083267Y0293128D02*
X0083267Y0290372D01*
X0080511Y0290372D01*
X0080511Y0293128D01*
X0083267Y0293128D01*
X0083267Y0291494D02*
X0080511Y0291494D01*
X0080511Y0292616D02*
X0083267Y0292616D01*
X0083267Y0191128D02*
X0083267Y0188372D01*
X0080511Y0188372D01*
X0080511Y0191128D01*
X0083267Y0191128D01*
X0083267Y0189494D02*
X0080511Y0189494D01*
X0080511Y0190616D02*
X0083267Y0190616D01*
X0090173Y0191128D02*
X0090173Y0188372D01*
X0087417Y0188372D01*
X0087417Y0191128D01*
X0090173Y0191128D01*
X0090173Y0189494D02*
X0087417Y0189494D01*
X0087417Y0190616D02*
X0090173Y0190616D01*
X0090173Y0089128D02*
X0090173Y0086372D01*
X0087417Y0086372D01*
X0087417Y0089128D01*
X0090173Y0089128D01*
X0090173Y0087494D02*
X0087417Y0087494D01*
X0087417Y0088616D02*
X0090173Y0088616D01*
X0083267Y0089128D02*
X0083267Y0086372D01*
X0080511Y0086372D01*
X0080511Y0089128D01*
X0083267Y0089128D01*
X0083267Y0087494D02*
X0080511Y0087494D01*
X0080511Y0088616D02*
X0083267Y0088616D01*
D19*
X0075743Y0098512D03*
X0075743Y0099988D03*
X0098243Y0099988D03*
X0098243Y0098512D03*
X0120243Y0098512D03*
X0120243Y0099988D03*
X0146743Y0099988D03*
X0146743Y0098512D03*
X0143440Y0057988D03*
X0143440Y0056512D03*
X0111440Y0056512D03*
X0111440Y0057988D03*
X0091440Y0057988D03*
X0091440Y0056512D03*
X0069440Y0056512D03*
X0069440Y0057988D03*
X0069440Y0158512D03*
X0069440Y0159988D03*
X0091440Y0159988D03*
X0091440Y0158512D03*
X0111440Y0158512D03*
X0111440Y0159988D03*
X0143440Y0159988D03*
X0143440Y0158512D03*
X0146743Y0200512D03*
X0146743Y0201988D03*
X0120243Y0201988D03*
X0120243Y0200512D03*
X0098243Y0200512D03*
X0098243Y0201988D03*
X0075743Y0201988D03*
X0075743Y0200512D03*
X0069440Y0260512D03*
X0069440Y0261988D03*
X0091440Y0261988D03*
X0091440Y0260512D03*
X0111440Y0260512D03*
X0111440Y0261988D03*
X0143440Y0261988D03*
X0143440Y0260512D03*
X0146743Y0302512D03*
X0146743Y0303988D03*
X0120243Y0303988D03*
X0120243Y0302512D03*
X0098243Y0302512D03*
X0098243Y0303988D03*
X0075743Y0303988D03*
X0075743Y0302512D03*
X0196440Y0261988D03*
X0196440Y0260512D03*
X0218440Y0260512D03*
X0218440Y0261988D03*
X0238440Y0261988D03*
X0238440Y0260512D03*
X0270440Y0260512D03*
X0270440Y0261988D03*
X0273743Y0302512D03*
X0273743Y0303988D03*
X0247243Y0303988D03*
X0247243Y0302512D03*
X0225243Y0302512D03*
X0225243Y0303988D03*
X0202743Y0303988D03*
X0202743Y0302512D03*
X0202743Y0201988D03*
X0202743Y0200512D03*
X0225243Y0200512D03*
X0225243Y0201988D03*
X0247243Y0201988D03*
X0247243Y0200512D03*
X0273743Y0200512D03*
X0273743Y0201988D03*
X0270440Y0159988D03*
X0270440Y0158512D03*
X0238440Y0158512D03*
X0238440Y0159988D03*
X0218440Y0159988D03*
X0218440Y0158512D03*
X0196440Y0158512D03*
X0196440Y0159988D03*
X0202743Y0099988D03*
X0202743Y0098512D03*
X0225243Y0098512D03*
X0225243Y0099988D03*
X0247243Y0099988D03*
X0247243Y0098512D03*
X0273743Y0098512D03*
X0273743Y0099988D03*
X0270440Y0057988D03*
X0270440Y0056512D03*
X0238440Y0056512D03*
X0238440Y0057988D03*
X0218440Y0057988D03*
X0218440Y0056512D03*
X0196440Y0056512D03*
X0196440Y0057988D03*
D20*
X0198999Y0057250D03*
X0220999Y0057250D03*
X0240999Y0057250D03*
X0272999Y0057250D03*
X0271184Y0099250D03*
X0244684Y0099250D03*
X0222684Y0099250D03*
X0200184Y0099250D03*
X0144184Y0099250D03*
X0117684Y0099250D03*
X0095684Y0099250D03*
X0073184Y0099250D03*
X0071999Y0057250D03*
X0093999Y0057250D03*
X0113999Y0057250D03*
X0145999Y0057250D03*
X0145999Y0159250D03*
X0113999Y0159250D03*
X0093999Y0159250D03*
X0071999Y0159250D03*
X0073184Y0201250D03*
X0095684Y0201250D03*
X0117684Y0201250D03*
X0144184Y0201250D03*
X0198999Y0159250D03*
X0220999Y0159250D03*
X0240999Y0159250D03*
X0272999Y0159250D03*
X0271184Y0201250D03*
X0244684Y0201250D03*
X0222684Y0201250D03*
X0200184Y0201250D03*
X0198999Y0261250D03*
X0220999Y0261250D03*
X0240999Y0261250D03*
X0272999Y0261250D03*
X0271184Y0303250D03*
X0244684Y0303250D03*
X0222684Y0303250D03*
X0200184Y0303250D03*
X0144184Y0303250D03*
X0117684Y0303250D03*
X0095684Y0303250D03*
X0073184Y0303250D03*
X0071999Y0261250D03*
X0093999Y0261250D03*
X0113999Y0261250D03*
X0145999Y0261250D03*
D21*
X0150373Y0265081D03*
X0154310Y0265081D03*
X0152342Y0260553D03*
X0122310Y0265081D03*
X0118373Y0265081D03*
X0120342Y0260553D03*
X0102310Y0265081D03*
X0098373Y0265081D03*
X0100342Y0260553D03*
X0080310Y0265081D03*
X0076373Y0265081D03*
X0078342Y0260553D03*
X0087373Y0299419D03*
X0091310Y0299419D03*
X0089342Y0303947D03*
X0109373Y0299419D03*
X0113310Y0299419D03*
X0111342Y0303947D03*
X0135873Y0299419D03*
X0139810Y0299419D03*
X0137842Y0303947D03*
X0191873Y0299419D03*
X0195810Y0299419D03*
X0193842Y0303947D03*
X0214373Y0299419D03*
X0218310Y0299419D03*
X0216342Y0303947D03*
X0236373Y0299419D03*
X0240310Y0299419D03*
X0238342Y0303947D03*
X0262873Y0299419D03*
X0266810Y0299419D03*
X0264842Y0303947D03*
X0277373Y0265081D03*
X0281310Y0265081D03*
X0279342Y0260553D03*
X0249310Y0265081D03*
X0245373Y0265081D03*
X0247342Y0260553D03*
X0229310Y0265081D03*
X0225373Y0265081D03*
X0227342Y0260553D03*
X0207310Y0265081D03*
X0203373Y0265081D03*
X0205342Y0260553D03*
X0216342Y0201947D03*
X0218310Y0197419D03*
X0214373Y0197419D03*
X0195810Y0197419D03*
X0191873Y0197419D03*
X0193842Y0201947D03*
X0203373Y0163081D03*
X0207310Y0163081D03*
X0205342Y0158553D03*
X0225373Y0163081D03*
X0229310Y0163081D03*
X0227342Y0158553D03*
X0245373Y0163081D03*
X0249310Y0163081D03*
X0247342Y0158553D03*
X0277373Y0163081D03*
X0281310Y0163081D03*
X0279342Y0158553D03*
X0266810Y0197419D03*
X0262873Y0197419D03*
X0264842Y0201947D03*
X0240310Y0197419D03*
X0236373Y0197419D03*
X0238342Y0201947D03*
X0154310Y0163081D03*
X0150373Y0163081D03*
X0152342Y0158553D03*
X0122310Y0163081D03*
X0118373Y0163081D03*
X0120342Y0158553D03*
X0102310Y0163081D03*
X0098373Y0163081D03*
X0100342Y0158553D03*
X0080310Y0163081D03*
X0076373Y0163081D03*
X0078342Y0158553D03*
X0087373Y0197419D03*
X0091310Y0197419D03*
X0089342Y0201947D03*
X0109373Y0197419D03*
X0113310Y0197419D03*
X0111342Y0201947D03*
X0135873Y0197419D03*
X0139810Y0197419D03*
X0137842Y0201947D03*
X0068810Y0197419D03*
X0064873Y0197419D03*
X0066842Y0201947D03*
X0064873Y0299419D03*
X0068810Y0299419D03*
X0066842Y0303947D03*
X0066842Y0099947D03*
X0068810Y0095419D03*
X0064873Y0095419D03*
X0087373Y0095419D03*
X0091310Y0095419D03*
X0089342Y0099947D03*
X0109373Y0095419D03*
X0113310Y0095419D03*
X0111342Y0099947D03*
X0135873Y0095419D03*
X0139810Y0095419D03*
X0137842Y0099947D03*
X0150373Y0061081D03*
X0154310Y0061081D03*
X0152342Y0056553D03*
X0122310Y0061081D03*
X0118373Y0061081D03*
X0120342Y0056553D03*
X0102310Y0061081D03*
X0098373Y0061081D03*
X0100342Y0056553D03*
X0080310Y0061081D03*
X0076373Y0061081D03*
X0078342Y0056553D03*
X0191873Y0095419D03*
X0195810Y0095419D03*
X0193842Y0099947D03*
X0214373Y0095419D03*
X0218310Y0095419D03*
X0216342Y0099947D03*
X0236373Y0095419D03*
X0240310Y0095419D03*
X0238342Y0099947D03*
X0262873Y0095419D03*
X0266810Y0095419D03*
X0264842Y0099947D03*
X0277373Y0061081D03*
X0281310Y0061081D03*
X0279342Y0056553D03*
X0249310Y0061081D03*
X0245373Y0061081D03*
X0247342Y0056553D03*
X0229310Y0061081D03*
X0225373Y0061081D03*
X0227342Y0056553D03*
X0207310Y0061081D03*
X0203373Y0061081D03*
X0205342Y0056553D03*
D22*
X0198310Y0053750D03*
X0194373Y0053750D03*
X0194373Y0060750D03*
X0198310Y0060750D03*
X0216373Y0060750D03*
X0220310Y0060750D03*
X0220310Y0053750D03*
X0216373Y0053750D03*
X0236373Y0053750D03*
X0240310Y0053750D03*
X0240310Y0060750D03*
X0236373Y0060750D03*
X0268373Y0060750D03*
X0272310Y0060750D03*
X0272310Y0053750D03*
X0268373Y0053750D03*
X0271873Y0095750D03*
X0275810Y0095750D03*
X0275810Y0102750D03*
X0271873Y0102750D03*
X0249310Y0102750D03*
X0245373Y0102750D03*
X0245373Y0095750D03*
X0249310Y0095750D03*
X0227310Y0095750D03*
X0223373Y0095750D03*
X0223373Y0102750D03*
X0227310Y0102750D03*
X0204810Y0102750D03*
X0200873Y0102750D03*
X0200873Y0095750D03*
X0204810Y0095750D03*
X0148810Y0095750D03*
X0144873Y0095750D03*
X0144873Y0102750D03*
X0148810Y0102750D03*
X0122310Y0102750D03*
X0118373Y0102750D03*
X0118373Y0095750D03*
X0122310Y0095750D03*
X0100310Y0095750D03*
X0096373Y0095750D03*
X0096373Y0102750D03*
X0100310Y0102750D03*
X0077810Y0102750D03*
X0073873Y0102750D03*
X0073873Y0095750D03*
X0077810Y0095750D03*
X0071310Y0060750D03*
X0067373Y0060750D03*
X0067373Y0053750D03*
X0071310Y0053750D03*
X0089373Y0053750D03*
X0093310Y0053750D03*
X0093310Y0060750D03*
X0089373Y0060750D03*
X0109373Y0060750D03*
X0113310Y0060750D03*
X0113310Y0053750D03*
X0109373Y0053750D03*
X0141373Y0053750D03*
X0145310Y0053750D03*
X0145310Y0060750D03*
X0141373Y0060750D03*
X0141373Y0155750D03*
X0145310Y0155750D03*
X0145310Y0162750D03*
X0141373Y0162750D03*
X0113310Y0162750D03*
X0109373Y0162750D03*
X0109373Y0155750D03*
X0113310Y0155750D03*
X0093310Y0155750D03*
X0089373Y0155750D03*
X0089373Y0162750D03*
X0093310Y0162750D03*
X0071310Y0162750D03*
X0067373Y0162750D03*
X0067373Y0155750D03*
X0071310Y0155750D03*
X0073873Y0197750D03*
X0077810Y0197750D03*
X0077810Y0204750D03*
X0073873Y0204750D03*
X0096373Y0204750D03*
X0100310Y0204750D03*
X0100310Y0197750D03*
X0096373Y0197750D03*
X0118373Y0197750D03*
X0122310Y0197750D03*
X0122310Y0204750D03*
X0118373Y0204750D03*
X0144873Y0204750D03*
X0148810Y0204750D03*
X0148810Y0197750D03*
X0144873Y0197750D03*
X0194373Y0162750D03*
X0198310Y0162750D03*
X0198310Y0155750D03*
X0194373Y0155750D03*
X0216373Y0155750D03*
X0220310Y0155750D03*
X0220310Y0162750D03*
X0216373Y0162750D03*
X0236373Y0162750D03*
X0240310Y0162750D03*
X0240310Y0155750D03*
X0236373Y0155750D03*
X0268373Y0155750D03*
X0272310Y0155750D03*
X0272310Y0162750D03*
X0268373Y0162750D03*
X0271873Y0197750D03*
X0275810Y0197750D03*
X0275810Y0204750D03*
X0271873Y0204750D03*
X0249310Y0204750D03*
X0245373Y0204750D03*
X0245373Y0197750D03*
X0249310Y0197750D03*
X0227310Y0197750D03*
X0223373Y0197750D03*
X0223373Y0204750D03*
X0227310Y0204750D03*
X0204810Y0204750D03*
X0200873Y0204750D03*
X0200873Y0197750D03*
X0204810Y0197750D03*
X0198310Y0257750D03*
X0194373Y0257750D03*
X0194373Y0264750D03*
X0198310Y0264750D03*
X0216373Y0264750D03*
X0220310Y0264750D03*
X0220310Y0257750D03*
X0216373Y0257750D03*
X0236373Y0257750D03*
X0240310Y0257750D03*
X0240310Y0264750D03*
X0236373Y0264750D03*
X0268373Y0264750D03*
X0272310Y0264750D03*
X0272310Y0257750D03*
X0268373Y0257750D03*
X0271873Y0299750D03*
X0275810Y0299750D03*
X0275810Y0306750D03*
X0271873Y0306750D03*
X0249310Y0306750D03*
X0245373Y0306750D03*
X0245373Y0299750D03*
X0249310Y0299750D03*
X0227310Y0299750D03*
X0223373Y0299750D03*
X0223373Y0306750D03*
X0227310Y0306750D03*
X0204810Y0306750D03*
X0200873Y0306750D03*
X0200873Y0299750D03*
X0204810Y0299750D03*
X0148810Y0299750D03*
X0144873Y0299750D03*
X0144873Y0306750D03*
X0148810Y0306750D03*
X0122310Y0306750D03*
X0118373Y0306750D03*
X0118373Y0299750D03*
X0122310Y0299750D03*
X0100310Y0299750D03*
X0096373Y0299750D03*
X0096373Y0306750D03*
X0100310Y0306750D03*
X0077810Y0306750D03*
X0073873Y0306750D03*
X0073873Y0299750D03*
X0077810Y0299750D03*
X0071310Y0264750D03*
X0067373Y0264750D03*
X0067373Y0257750D03*
X0071310Y0257750D03*
X0089373Y0257750D03*
X0093310Y0257750D03*
X0093310Y0264750D03*
X0089373Y0264750D03*
X0109373Y0264750D03*
X0113310Y0264750D03*
X0113310Y0257750D03*
X0109373Y0257750D03*
X0141373Y0257750D03*
X0145310Y0257750D03*
X0145310Y0264750D03*
X0141373Y0264750D03*
M02*
