G75*
%MOIN*%
%OFA0B0*%
%FSLAX25Y25*%
%IPPOS*%
%LPD*%
%AMOC8*
5,1,8,0,0,1.08239X$1,22.5*
%
%ADD10C,0.04737*%
%ADD11C,0.13800*%
%ADD12C,0.08200*%
%ADD13R,0.03300X0.05800*%
%ADD14C,0.00500*%
%ADD15R,0.05800X0.03300*%
%ADD16C,0.03800*%
%ADD17C,0.03575*%
D10*
X0046242Y0031650D03*
X0046242Y0133650D03*
X0046242Y0235650D03*
X0165442Y0227850D03*
X0173242Y0235650D03*
X0165442Y0329850D03*
X0292442Y0329850D03*
X0292442Y0227850D03*
X0292442Y0125850D03*
X0173242Y0133650D03*
X0165442Y0125850D03*
X0173242Y0031650D03*
D11*
X0180342Y0038750D03*
X0158342Y0038750D03*
X0158342Y0118750D03*
X0180342Y0118750D03*
X0180342Y0140750D03*
X0158342Y0140750D03*
X0158342Y0220750D03*
X0158342Y0242750D03*
X0180342Y0242750D03*
X0180342Y0220750D03*
X0180342Y0322750D03*
X0158342Y0322750D03*
X0053342Y0322750D03*
X0053342Y0242750D03*
X0053342Y0220750D03*
X0053342Y0140750D03*
X0053342Y0118750D03*
X0053342Y0038750D03*
X0285342Y0038750D03*
X0285342Y0118750D03*
X0285342Y0140750D03*
X0285342Y0220750D03*
X0285342Y0242750D03*
X0285342Y0322750D03*
D12*
X0245342Y0327750D03*
X0235342Y0327750D03*
X0225342Y0327750D03*
X0215342Y0327750D03*
X0205342Y0327750D03*
X0195342Y0327750D03*
X0118342Y0327750D03*
X0108342Y0327750D03*
X0098342Y0327750D03*
X0088342Y0327750D03*
X0078342Y0327750D03*
X0068342Y0327750D03*
X0068342Y0237750D03*
X0078342Y0237750D03*
X0088342Y0237750D03*
X0098342Y0237750D03*
X0108342Y0237750D03*
X0118342Y0237750D03*
X0118342Y0225750D03*
X0108342Y0225750D03*
X0098342Y0225750D03*
X0088342Y0225750D03*
X0078342Y0225750D03*
X0068342Y0225750D03*
X0068342Y0135750D03*
X0078342Y0135750D03*
X0088342Y0135750D03*
X0098342Y0135750D03*
X0108342Y0135750D03*
X0118342Y0135750D03*
X0118342Y0123750D03*
X0108342Y0123750D03*
X0098342Y0123750D03*
X0088342Y0123750D03*
X0078342Y0123750D03*
X0068342Y0123750D03*
X0068342Y0033750D03*
X0078342Y0033750D03*
X0088342Y0033750D03*
X0098342Y0033750D03*
X0108342Y0033750D03*
X0118342Y0033750D03*
X0195342Y0033750D03*
X0205342Y0033750D03*
X0215342Y0033750D03*
X0225342Y0033750D03*
X0235342Y0033750D03*
X0245342Y0033750D03*
X0245342Y0123750D03*
X0235342Y0123750D03*
X0225342Y0123750D03*
X0215342Y0123750D03*
X0205342Y0123750D03*
X0195342Y0123750D03*
X0195342Y0135750D03*
X0205342Y0135750D03*
X0215342Y0135750D03*
X0225342Y0135750D03*
X0235342Y0135750D03*
X0245342Y0135750D03*
X0245342Y0225750D03*
X0235342Y0225750D03*
X0225342Y0225750D03*
X0215342Y0225750D03*
X0205342Y0225750D03*
X0195342Y0225750D03*
X0195342Y0237750D03*
X0205342Y0237750D03*
X0215342Y0237750D03*
X0225342Y0237750D03*
X0235342Y0237750D03*
X0245342Y0237750D03*
D13*
X0254342Y0209750D03*
X0258342Y0209750D03*
X0262342Y0209750D03*
X0195842Y0256750D03*
X0191842Y0256750D03*
X0187842Y0256750D03*
X0135342Y0209750D03*
X0131342Y0209750D03*
X0127342Y0209750D03*
X0068842Y0256750D03*
X0064842Y0256750D03*
X0060842Y0256750D03*
X0127342Y0311750D03*
X0131342Y0311750D03*
X0135342Y0311750D03*
X0254342Y0311750D03*
X0258342Y0311750D03*
X0262342Y0311750D03*
X0195842Y0154750D03*
X0191842Y0154750D03*
X0187842Y0154750D03*
X0135342Y0107750D03*
X0131342Y0107750D03*
X0127342Y0107750D03*
X0068842Y0154750D03*
X0064842Y0154750D03*
X0060842Y0154750D03*
X0060842Y0052750D03*
X0064842Y0052750D03*
X0068842Y0052750D03*
X0187842Y0052750D03*
X0191842Y0052750D03*
X0195842Y0052750D03*
X0254342Y0107750D03*
X0258342Y0107750D03*
X0262342Y0107750D03*
D14*
X0261092Y0107515D02*
X0255592Y0107515D01*
X0255592Y0107250D02*
X0261092Y0107250D01*
X0261092Y0108250D01*
X0255592Y0108250D01*
X0255592Y0107250D01*
X0255592Y0108013D02*
X0261092Y0108013D01*
X0213342Y0079500D02*
X0212342Y0079500D01*
X0212342Y0078000D01*
X0213342Y0078000D01*
X0213342Y0079500D01*
X0213342Y0079100D02*
X0212342Y0079100D01*
X0212342Y0078601D02*
X0213342Y0078601D01*
X0213342Y0078103D02*
X0212342Y0078103D01*
X0194592Y0053250D02*
X0189092Y0053250D01*
X0189092Y0052250D01*
X0194592Y0052250D01*
X0194592Y0053250D01*
X0194592Y0053177D02*
X0189092Y0053177D01*
X0189092Y0052679D02*
X0194592Y0052679D01*
X0134092Y0107250D02*
X0134092Y0108250D01*
X0128592Y0108250D01*
X0128592Y0107250D01*
X0134092Y0107250D01*
X0134092Y0107515D02*
X0128592Y0107515D01*
X0128592Y0108013D02*
X0134092Y0108013D01*
X0086342Y0079500D02*
X0085342Y0079500D01*
X0085342Y0078000D01*
X0086342Y0078000D01*
X0086342Y0079500D01*
X0086342Y0079100D02*
X0085342Y0079100D01*
X0085342Y0078601D02*
X0086342Y0078601D01*
X0086342Y0078103D02*
X0085342Y0078103D01*
X0067592Y0053250D02*
X0062092Y0053250D01*
X0062092Y0052250D01*
X0067592Y0052250D01*
X0067592Y0053250D01*
X0067592Y0053177D02*
X0062092Y0053177D01*
X0062092Y0052679D02*
X0067592Y0052679D01*
X0067592Y0154250D02*
X0062092Y0154250D01*
X0062092Y0155250D01*
X0067592Y0155250D01*
X0067592Y0154250D01*
X0067592Y0154375D02*
X0062092Y0154375D01*
X0062092Y0154873D02*
X0067592Y0154873D01*
X0085342Y0180000D02*
X0086342Y0180000D01*
X0086342Y0181500D01*
X0085342Y0181500D01*
X0085342Y0180000D01*
X0085342Y0180297D02*
X0086342Y0180297D01*
X0086342Y0180796D02*
X0085342Y0180796D01*
X0085342Y0181294D02*
X0086342Y0181294D01*
X0128592Y0209250D02*
X0134092Y0209250D01*
X0134092Y0210250D01*
X0128592Y0210250D01*
X0128592Y0209250D01*
X0128592Y0209710D02*
X0134092Y0209710D01*
X0134092Y0210208D02*
X0128592Y0210208D01*
X0189092Y0256250D02*
X0189092Y0257250D01*
X0194592Y0257250D01*
X0194592Y0256250D01*
X0189092Y0256250D01*
X0189092Y0256570D02*
X0194592Y0256570D01*
X0194592Y0257068D02*
X0189092Y0257068D01*
X0212342Y0282000D02*
X0213342Y0282000D01*
X0213342Y0283500D01*
X0212342Y0283500D01*
X0212342Y0282000D01*
X0212342Y0282492D02*
X0213342Y0282492D01*
X0213342Y0282991D02*
X0212342Y0282991D01*
X0212342Y0283489D02*
X0213342Y0283489D01*
X0255592Y0311250D02*
X0261092Y0311250D01*
X0261092Y0312250D01*
X0255592Y0312250D01*
X0255592Y0311250D01*
X0255592Y0311406D02*
X0261092Y0311406D01*
X0261092Y0311904D02*
X0255592Y0311904D01*
X0255592Y0210250D02*
X0255592Y0209250D01*
X0261092Y0209250D01*
X0261092Y0210250D01*
X0255592Y0210250D01*
X0255592Y0210208D02*
X0261092Y0210208D01*
X0261092Y0209710D02*
X0255592Y0209710D01*
X0213342Y0181500D02*
X0213342Y0180000D01*
X0212342Y0180000D01*
X0212342Y0181500D01*
X0213342Y0181500D01*
X0213342Y0181294D02*
X0212342Y0181294D01*
X0212342Y0180796D02*
X0213342Y0180796D01*
X0213342Y0180297D02*
X0212342Y0180297D01*
X0194592Y0155250D02*
X0189092Y0155250D01*
X0189092Y0154250D01*
X0194592Y0154250D01*
X0194592Y0155250D01*
X0194592Y0154873D02*
X0189092Y0154873D01*
X0189092Y0154375D02*
X0194592Y0154375D01*
X0067592Y0256250D02*
X0067592Y0257250D01*
X0062092Y0257250D01*
X0062092Y0256250D01*
X0067592Y0256250D01*
X0067592Y0256570D02*
X0062092Y0256570D01*
X0062092Y0257068D02*
X0067592Y0257068D01*
X0085342Y0282000D02*
X0086342Y0282000D01*
X0086342Y0283500D01*
X0085342Y0283500D01*
X0085342Y0282000D01*
X0085342Y0282492D02*
X0086342Y0282492D01*
X0086342Y0282991D02*
X0085342Y0282991D01*
X0085342Y0283489D02*
X0086342Y0283489D01*
X0128592Y0311250D02*
X0134092Y0311250D01*
X0134092Y0312250D01*
X0128592Y0312250D01*
X0128592Y0311250D01*
X0128592Y0311406D02*
X0134092Y0311406D01*
X0134092Y0311904D02*
X0128592Y0311904D01*
D15*
X0085842Y0284750D03*
X0085842Y0280750D03*
X0134342Y0263450D03*
X0134342Y0260250D03*
X0085842Y0182750D03*
X0085842Y0178750D03*
X0134342Y0161450D03*
X0134342Y0158250D03*
X0085842Y0080750D03*
X0085842Y0076750D03*
X0134342Y0059450D03*
X0134342Y0056250D03*
X0212842Y0076750D03*
X0212842Y0080750D03*
X0261342Y0059450D03*
X0261342Y0056250D03*
X0261342Y0158250D03*
X0261342Y0161450D03*
X0212842Y0178750D03*
X0212842Y0182750D03*
X0261342Y0260250D03*
X0261342Y0263450D03*
X0212842Y0280750D03*
X0212842Y0284750D03*
D16*
X0209842Y0291750D03*
X0209842Y0189750D03*
X0209842Y0087750D03*
X0082842Y0087750D03*
X0082842Y0189750D03*
X0082842Y0291750D03*
D17*
X0076842Y0295250D03*
X0069342Y0307250D03*
X0091842Y0307250D03*
X0101342Y0295250D03*
X0113342Y0307750D03*
X0125342Y0295750D03*
X0139842Y0307750D03*
X0146342Y0295250D03*
X0140842Y0269250D03*
X0151342Y0255750D03*
X0118342Y0256750D03*
X0110342Y0269250D03*
X0096342Y0268750D03*
X0097842Y0256750D03*
X0075842Y0256750D03*
X0062842Y0264250D03*
X0069342Y0205250D03*
X0076842Y0193250D03*
X0091842Y0205250D03*
X0101342Y0193250D03*
X0113342Y0205750D03*
X0125342Y0193750D03*
X0139842Y0205750D03*
X0146342Y0193250D03*
X0140842Y0167250D03*
X0151342Y0153750D03*
X0118342Y0154750D03*
X0110342Y0167250D03*
X0096342Y0166750D03*
X0097842Y0154750D03*
X0075842Y0154750D03*
X0062842Y0162250D03*
X0069342Y0103250D03*
X0076842Y0091250D03*
X0091842Y0103250D03*
X0101342Y0091250D03*
X0113342Y0103750D03*
X0125342Y0091750D03*
X0139842Y0103750D03*
X0146342Y0091250D03*
X0140842Y0065250D03*
X0151342Y0051750D03*
X0118342Y0052750D03*
X0110342Y0065250D03*
X0096342Y0064750D03*
X0097842Y0052750D03*
X0075842Y0052750D03*
X0062842Y0060250D03*
X0189842Y0060250D03*
X0202842Y0052750D03*
X0224842Y0052750D03*
X0223342Y0064750D03*
X0237342Y0065250D03*
X0245342Y0052750D03*
X0267842Y0065250D03*
X0278342Y0051750D03*
X0273342Y0091250D03*
X0266842Y0103750D03*
X0252342Y0091750D03*
X0240342Y0103750D03*
X0228342Y0091250D03*
X0218842Y0103250D03*
X0203842Y0091250D03*
X0196342Y0103250D03*
X0202842Y0154750D03*
X0189842Y0162250D03*
X0203842Y0193250D03*
X0196342Y0205250D03*
X0218842Y0205250D03*
X0228342Y0193250D03*
X0240342Y0205750D03*
X0252342Y0193750D03*
X0266842Y0205750D03*
X0273342Y0193250D03*
X0267842Y0167250D03*
X0278342Y0153750D03*
X0245342Y0154750D03*
X0237342Y0167250D03*
X0223342Y0166750D03*
X0224842Y0154750D03*
X0224842Y0256750D03*
X0223342Y0268750D03*
X0237342Y0269250D03*
X0245342Y0256750D03*
X0267842Y0269250D03*
X0278342Y0255750D03*
X0273342Y0295250D03*
X0266842Y0307750D03*
X0252342Y0295750D03*
X0240342Y0307750D03*
X0228342Y0295250D03*
X0218842Y0307250D03*
X0203842Y0295250D03*
X0196342Y0307250D03*
X0189842Y0264250D03*
X0202842Y0256750D03*
M02*
